PathFileType	4	(X/Y/Z)	C:/Users/beibeiliu/ov580/test_trc/User2\sequence.43_training_dense_left.trc
DataRate	CameraRate	NumFrames	NumMarkers	Units	OrigDataRate	OrigDataStartFrame	OrigNumFrames
120	120	7	19	mm	120	1	107
Frame#	Time	ThumbCMC			ThumbMCP			ThumbIP			ThumbTip			IndexMCP			IndexPIP			IndexTip			MiddleMCP			MiddlePIP			MiddleTip			RingMCP			RingPIP			RingTip			PinkyMCP			PinkyPIP			PinkyTip			BackHand1			BackHand2			BackHand3	
		X0	Y0	Z0	X1	Y1	Z1	X2	Y2	Z2	X3	Y3	Z3	X4	Y4	Z4	X5	Y5	Z5	X6	Y6	Z6	X7	Y7	Z7	X8	Y8	Z8	X9	Y9	Z9	X10	Y10	Z10	X11	Y11	Z11	X12	Y12	Z12	X13	Y13	Z13	X14	Y14	Z14	X15	Y15	Z15	X16	Y16	Z16	X17	Y17	Z17	X18	Y18	Z18	
0	0	-177.212	-6.8608	3.96234	-158.64	-7.2663	-16.2363	-131.489	-0.667894	-36.6318	-110.65	0.639032	-51.1885	-199.469	15.0746	-74.8373	-192.193	19.9669	-99.608	-187.563	31.5935	-129.193	-226.465	18.1045	-80.6868	-229.514	25.4059	-109.988	-234.218	34.5111	-139.1	-253.657	8.75367	-75.5449	-261.64	12.289	-95.7846	-270.575	18.5486	-122.091	-278.328	-9.22407	-54.6035	-290.355	-9.11105	-71.5555	-303.584	1.34652	-90.4493	-246.23	8.4698	-21.0736	-243.766	8.85212	16.9221	-211.191	14.3206	-6.66816	
1	0.00833333	-179.537	-7.74394	1.26614	-158.481	-6.72577	-17.4525	-136.479	-3.58371	-39.5483	-111.916	-2.11372	-52.8421	-201.163	15.2006	-76.7085	-194.956	21.7564	-103.865	-191.038	30.7242	-131.064	-227.309	18.63	-83.2006	-230.038	24.4352	-107.861	-236.156	34.1521	-139.427	-259.038	7.74677	-72.4925	-262.464	11.4884	-96.4496	-273.306	20.3794	-126.273	-275.457	-10.1863	-51.7113	-295.223	-6.99977	-73.9908	-306.785	1.50327	-86.2054	-249.045	6.2289	-17.2935	-243.961	9.92508	14.1827	-211.431	13.3015	-8.82899	
2	0.0166667	-180.174	-8.75386	2.81227	-160.861	-8.74759	-15.6424	-132.731	-3.00129	-41.4895	-115.787	-5.21169	-51.0396	-196.727	15.8292	-79.8572	-196.278	20.4667	-102.261	-188.54	29.3733	-126.958	-230.606	18.246	-79.8879	-231.52	24.6589	-109.19	-234.134	33.9745	-137.886	-254.488	8.16957	-71.6029	-264.979	12.6032	-100.551	-274.795	19.5131	-125.333	-278.38	-8.80486	-51.7452	-295.091	-7.79869	-71.9612	-307.105	0.553767	-87.8391	-250.58	7.09916	-17.6398	-243.918	8.42014	13.7236	-213.449	12.6447	-5.99797	
3	0.025	-177.614	-6.25536	-1.73759	-161.255	-7.73197	-18.9411	-135.028	-3.70685	-40.3728	-115.612	-5.36363	-49.3369	-200.102	16.226	-79.5912	-192.466	23.0889	-104.753	-194.796	28.9769	-127.09	-228.592	18.4607	-78.7176	-232.379	26.0645	-111.224	-237.373	34.3842	-138.695	-255.251	9.56534	-74.2117	-265.936	12.8699	-99.0459	-271.649	18.7815	-121.475	-274.019	-8.21229	-52.6554	-291.304	-4.81604	-73.3548	-306.95	3.82305	-86.1421	-249.354	7.17929	-20.7692	-248.023	9.10027	13.0954	-212.525	14.0807	-9.05756	
4	0.0333333	-182	-8.2814	2.01547	-160.125	-6.5222	-19.9745	-133.304	-3.21411	-37.9922	-113.361	-3.84356	-50.1925	-198.149	17.2798	-75.2972	-195.115	22.9075	-99.587	-190.842	31.3461	-125.291	-226.993	22.5622	-83.1765	-230.065	27.7606	-113.147	-234.998	35.2731	-137.173	-259.882	9.32852	-72.071	-265.269	15.3448	-100.156	-274.852	20.5443	-125.361	-280.431	-6.99724	-51.9764	-289.977	-3.68327	-72.9489	-307.438	5.9558	-86.7045	-250.461	9.65373	-19.0337	-242.721	10.9836	12.0012	-213.432	13.5748	-8.45672	
5	0.0416667	-182.629	-5.57153	-1.27976	-162.533	-5.10104	-19.1788	-137.292	-0.890319	-43.393	-115.511	-2.69171	-53.4229	-198.463	20.8214	-72.6765	-198.719	28.5874	-102.355	-192.754	35.8164	-124.269	-231.816	25.9018	-80.5809	-231.581	32.4552	-108.903	-239.019	39.1076	-137.788	-261.088	14.71	-70.6307	-268.544	19.726	-98.4986	-275.325	23.569	-122.289	-279.31	-0.331598	-51.3241	-290.199	1.23109	-70.9399	-308.114	8.50409	-88.3656	-247.343	12.8789	-14.2177	-245.144	12.3404	15.9903	-210.458	16.1285	-5.79739	
6	0.05	-180.929	-1.53225	0.322349	-161.388	-0.853112	-19.4883	-141.64	-0.268475	-41.7771	-122.468	0.601064	-57.2437	-202.548	29.9438	-74.8604	-196.023	35.0074	-95.6701	-195.716	44.483	-122.186	-232.93	33.5862	-78.2568	-231.525	39.4036	-104.518	-237.237	47.2428	-137.821	-255.497	22.1352	-67.5798	-265.294	26.1678	-95.1862	-270.022	31.1705	-126.586	-281.572	5.02453	-50.7106	-294.086	7.87043	-75.3556	-306.332	14.0869	-92.0952	-246.588	16.1129	-11.9481	-246.65	15.7919	20.2912	-213.818	21.6669	-1.17984	
